<?xml version="1.0" standalone="no"?>
<!DOCTYPE svg PUBLIC "-//W3C//DTD SVG 20010904//EN"
 "http://www.w3.org/TR/2001/REC-SVG-20010904/DTD/svg10.dtd">
<svg version="1.0" xmlns="http://www.w3.org/2000/svg"
 width="700.000000pt" height="700.000000pt" viewBox="0 0 700.000000 700.000000"
 preserveAspectRatio="xMidYMid meet">
<metadata>
Created by potrace 1.11, written by Peter Selinger 2001-2013
</metadata>
<g transform="translate(0.000000,700.000000) scale(0.100000,-0.100000)"
fill="#000000" stroke="none">
<path d="M3444 6175 c-28 -6 -61 -19 -75 -28 -20 -15 -159 -146 -384 -362 -29
-27 -135 -129 -235 -225 -101 -96 -202 -193 -225 -215 -59 -57 -421 -403 -539
-516 -54 -52 -126 -121 -161 -154 -87 -85 -511 -490 -734 -704 -239 -228 -264
-259 -274 -346 -9 -75 17 -126 118 -234 155 -165 181 -182 281 -177 45 2 73 9
107 29 52 31 69 33 87 12 9 -11 12 -278 13 -1142 l2 -1128 22 -42 c28 -52 86
-100 139 -116 32 -9 473 -12 1925 -11 1762 0 1887 2 1924 18 50 21 91 59 118
111 l22 40 2 1129 c2 824 6 1132 14 1142 16 20 30 18 94 -16 68 -36 132 -39
198 -11 41 18 192 161 255 241 65 84 56 220 -21 300 -24 25 -371 359 -458 441
-26 24 -132 126 -235 225 -104 100 -218 209 -254 244 -36 34 -145 139 -244
233 -98 95 -192 185 -210 201 -17 16 -120 115 -230 220 -109 105 -220 211
-246 236 -26 25 -136 131 -246 236 -109 105 -233 223 -274 262 -109 104 -176
131 -276 107z"/>
</g>
</svg>
