<?xml version="1.0" standalone="no"?>
<!DOCTYPE svg PUBLIC "-//W3C//DTD SVG 20010904//EN"
 "http://www.w3.org/TR/2001/REC-SVG-20010904/DTD/svg10.dtd">
<svg version="1.0" xmlns="http://www.w3.org/2000/svg"
 width="700.000000pt" height="700.000000pt" viewBox="0 0 700.000000 700.000000"
 preserveAspectRatio="xMidYMid meet">
<metadata>
Created by potrace 1.11, written by Peter Selinger 2001-2013
</metadata>
<g transform="translate(0.000000,700.000000) scale(0.100000,-0.100000)"
fill="#000000" stroke="none">
<path d="M3412 6988 c-62 -17 -119 -62 -308 -244 -104 -100 -214 -205 -244
-234 -30 -29 -135 -129 -234 -224 -98 -94 -207 -198 -241 -231 -35 -33 -146
-139 -247 -236 -101 -97 -201 -194 -224 -215 -23 -22 -121 -115 -218 -209 -98
-93 -208 -199 -245 -235 -38 -36 -146 -139 -240 -230 -95 -91 -200 -191 -234
-224 -34 -32 -149 -142 -256 -245 -107 -102 -246 -235 -310 -296 -246 -234
-381 -373 -381 -392 0 -10 -5 -24 -12 -31 -7 -7 -13 -46 -14 -91 -3 -115 25
-164 195 -340 139 -145 178 -172 267 -187 56 -8 146 11 195 41 22 15 56 29 74
32 29 5 33 2 44 -27 8 -24 11 -432 12 -1479 0 -1425 0 -1447 20 -1499 25 -63
87 -130 155 -163 l49 -24 2485 0 2485 0 48 24 c64 31 120 87 149 147 l23 49 5
1478 c4 1299 7 1479 20 1487 19 12 53 13 66 1 5 -5 32 -21 59 -36 42 -24 62
-28 130 -29 121 -1 160 22 315 184 149 157 175 194 191 268 14 68 6 129 -25
196 -22 50 -73 102 -486 495 -41 40 -145 139 -230 220 -85 82 -180 173 -210
201 -30 29 -144 139 -254 244 -109 105 -213 205 -231 221 -35 34 -377 361
-465 445 -31 30 -139 134 -240 230 -205 196 -203 195 -470 450 -106 102 -214
205 -240 230 -26 25 -134 128 -240 230 -199 191 -221 210 -280 237 -41 18
-161 25 -208 11z"/>
</g>
</svg>
