<?xml version="1.0" encoding="utf-8"?>
<!-- Generator: Adobe Illustrator 22.1.0, SVG Export Plug-In . SVG Version: 6.00 Build 0)  -->
<svg version="1.1" id="Warstwa_1" xmlns="http://www.w3.org/2000/svg" xmlns:xlink="http://www.w3.org/1999/xlink" x="0px" y="0px"
	 viewBox="0 0 566.9 566.9" style="enable-background:new 0 0 566.9 566.9;" xml:space="preserve">
<style type="text/css">
	.st0{fill:#60646A;}
</style>
<g>
	<g>
		<path class="st0" d="M508.3,309.8c-4.8-4.6-8.6-2.8-8.6,3.8v225c0,13.3-10.7,24.1-24,24.1H91.3c-13.3,0-24-10.9-24-24.1v-225
			c0-6.7-3.8-8.4-8.6-3.8l2.8-2.7c-9.6,9.2-24.8,8.8-33.9-0.8l-16.6-17.5c-9.2-9.6-8.8-24.8,0.9-34.1L266,11.2
			c9.6-9.2,25.2-9.3,34.9,0l254.3,243.5c9.6,9.2,10,24.5,0.9,34.1l-16.6,17.5c-9.2,9.6-24.4,9.9-33.9,0.8L508.3,309.8z"/>
	</g>
</g>
</svg>
