<svg xmlns="http://www.w3.org/2000/svg" version="1.1" id="Warstwa_1" x="0px" y="0px" viewBox="0 0 98 121" style="enable-background:new 0 0 98 121;" xml:space="preserve" xmlns:xml="http://www.w3.org/XML/1998/namespace" width="100%" height="100%" preserveAspectRatio="xMidYMid">
  <style type="text/css">
    
	.st0{fill:#444444;}

  </style>
  <path class="st0" d="M25.8,92.5c0,1.5,1,3.4,3.1,3.5s2.8-1.4,3.4-1.5c0.7-0.2,1.2,0.5,1.2,1.4v9h24.9v-9.1c0-0.2-0.2-0.2-0.3-0.1  c-0.2,0.1-0.2,0.2-0.5,0.4C57,96.7,56,97.1,54.7,97c-1.3-0.1-2.4-0.8-3-1.6c-0.7-0.9-1-1.9-1-2.9c0-1,0.3-2,1-2.9  c0.7-0.9,1.7-1.6,3-1.6c1.3-0.1,2.2,0.4,2.9,0.8c0.3,0.2,0.4,0.3,0.5,0.4c0.1,0.1,0.3,0,0.3-0.1v-9.1h-9.1c-0.2,0-0.2,0.2-0.1,0.3  c0.1,0.2,0.2,0.2,0.4,0.5c0.5,0.6,0.9,1.6,0.8,2.9c-0.1,1.3-0.8,2.4-1.6,3c-0.9,0.7-1.9,1-2.9,1s-2-0.3-2.9-1  c-0.9-0.7-1.6-1.7-1.6-3c-0.1-1.3,0.4-2.2,0.8-2.9c0.2-0.3,0.3-0.4,0.4-0.5c0.1-0.1,0-0.3-0.1-0.3h-9.1v9c0,0.9-0.5,1.6-1.2,1.4  c-0.6-0.2-1.4-1.6-3.4-1.5S25.8,91.1,25.8,92.5z"/>
  <path class="st0" d="M20.1,46.5c-1.5,0-3.4,1-3.5,3.1s1.4,2.8,1.5,3.4c0.2,0.7-0.5,1.2-1.4,1.2h-9v24.9h9.1c0.2,0,0.2-0.2,0.1-0.3  c-0.1-0.2-0.2-0.2-0.4-0.5c-0.5-0.6-0.9-1.6-0.8-2.9c0.1-1.3,0.8-2.4,1.6-3c0.9-0.7,1.9-1,2.9-1c1,0,2,0.3,2.9,1  c0.9,0.7,1.6,1.7,1.6,3c0.1,1.3-0.4,2.2-0.8,2.9c-0.2,0.3-0.3,0.4-0.4,0.5c-0.1,0.1,0,0.3,0.1,0.3h9.1V70c0-0.2-0.2-0.2-0.3-0.1  c-0.2,0.1-0.2,0.2-0.5,0.4c-0.6,0.5-1.6,0.9-2.9,0.8c-1.3-0.1-2.4-0.8-3-1.6c-0.7-0.9-1-1.9-1-2.9c0-1,0.3-2,1-2.9  c0.7-0.9,1.7-1.6,3-1.6c1.3-0.1,2.2,0.4,2.9,0.8c0.3,0.2,0.4,0.3,0.5,0.4c0.1,0.1,0.3,0,0.3-0.1v-9.1h-9c-0.9,0-1.6-0.5-1.4-1.2  c0.1-0.6,1.6-1.4,1.5-3.4C23.5,47.6,21.6,46.5,20.1,46.5z"/>
  <path class="st0" d="M20.1,72.4c-1.5,0-3.4,1-3.5,3.1c-0.1,2,1.4,2.8,1.5,3.4c0.2,0.7-0.5,1.2-1.4,1.2h-9V105h24.9v-9.1  c0-0.2-0.2-0.2-0.3-0.1c-0.2,0.1-0.2,0.2-0.5,0.4c-0.6,0.5-1.6,0.9-2.9,0.8c-1.3-0.1-2.4-0.8-3-1.6c-0.7-0.9-1-1.9-1-2.9  c0-1,0.3-2,1-2.9c0.7-0.9,1.7-1.6,3-1.6c1.3-0.1,2.2,0.4,2.9,0.8c0.3,0.2,0.4,0.3,0.5,0.4c0.1,0.1,0.3,0,0.3-0.1v-9.1h-9  c-0.9,0-1.6-0.6-1.4-1.2c0.2-0.6,1.6-1.4,1.5-3.4C23.5,73.4,21.6,72.4,20.1,72.4z"/>
  <path class="st0" d="M7.7,28.4v24.9h9.1c0.2,0,0.2-0.2,0.1-0.3c-0.1-0.2-0.2-0.2-0.4-0.5c-0.5-0.6-0.9-1.6-0.8-2.9  c0.1-1.3,0.8-2.4,1.6-3c0.9-0.7,1.9-1,2.9-1c1,0,2,0.3,2.9,1c0.9,0.7,1.6,1.7,1.6,3c0.1,1.3-0.4,2.2-0.8,2.9  c-0.2,0.3-0.3,0.4-0.4,0.5c-0.1,0.1,0,0.3,0.1,0.3h9.1v-9c0-0.9,0.6-1.6,1.2-1.4c0.6,0.2,1.4,1.6,3.4,1.5c2-0.1,3.1-2,3.1-3.5  c0-1.5-1-3.4-3.1-3.5c-2-0.1-2.8,1.4-3.4,1.5c-0.7,0.2-1.2-0.5-1.2-1.4v-9L7.7,28.4z"/>
  <path class="st0" d="M59.4,80.1v9c0,0.9-0.6,1.6-1.2,1.4c-0.6-0.2-1.4-1.6-3.4-1.5c-2,0.1-3.1,2-3.1,3.5s1,3.4,3.1,3.5  c2,0.1,2.8-1.4,3.4-1.5c0.7-0.2,1.2,0.5,1.2,1.4v9h24.9V80.1H75c-0.9,0-1.5,0.5-1.3,1.1c0.1,0.5,1.5,1.3,1.4,3.1  c-0.1,1.9-1.9,2.9-3.3,2.9s-3.2-1-3.3-2.9c-0.1-1.9,1.3-2.6,1.4-3.1c0.2-0.6-0.4-1.1-1.3-1.1L59.4,80.1z"/>
  <path class="st0" d="M33.5,54.2v9c0,0.9-0.5,1.6-1.2,1.4c-0.6-0.2-1.4-1.6-3.4-1.5c-2,0.1-3.1,2-3.1,3.5s1,3.4,3.1,3.5  c2,0.1,2.8-1.4,3.4-1.5c0.7-0.2,1.2,0.5,1.2,1.4v9h9c0.9,0,1.6,0.5,1.4,1.2c-0.2,0.6-1.6,1.4-1.5,3.4c0.1,2,2,3.1,3.5,3.1  s3.4-1,3.5-3.1c0.1-2-1.4-2.8-1.5-3.4c-0.2-0.7,0.5-1.2,1.4-1.2h9v-9c0-0.9,0.5-1.6,1.2-1.4c0.6,0.2,1.4,1.6,3.4,1.5  c2-0.1,3.1-2,3.1-3.5s-1-3.4-3.1-3.5c-2-0.1-2.8,1.4-3.4,1.5c-0.7,0.2-1.2-0.5-1.2-1.4v-9c0,0-6.2,0-9.3,0c-0.9,0-1.5,0.5-1.3,1.1  c0.1,0.5,1.5,1.3,1.4,3.1c-0.1,1.9-1.9,2.9-3.3,2.9c-1.4,0-3.2-1-3.3-2.9c-0.1-1.9,1.3-2.6,1.4-3.1c0.2-0.6-0.4-1.1-1.3-1.1  C39.7,54.2,33.5,54.2,33.5,54.2z"/>
  <path class="st0" d="M59.7,15L37.9,27.1l4.5,8.1c0.4,0.8,1.2,1,1.6,0.6c0.4-0.4,0.4-1.9,2.1-2.8c1.7-0.8,3.4,0.3,4.1,1.5  c0.7,1.2,0.7,3.2-0.9,4.3c-1.6,1-2.9,0.2-3.4,0.3c-0.6,0.2-0.8,0.9-0.4,1.7l4.5,8.1l7.9-4.4c0.8-0.5,1.7-0.3,1.8,0.4  c0.1,0.6-0.8,2,0.3,3.7c1.1,1.7,3.3,1.7,4.6,1c1.3-0.7,2.5-2.6,1.6-4.4c-0.9-1.8-2.6-1.8-3-2.2c-0.5-0.5-0.2-1.3,0.6-1.8l7.9-4.4  l-4.4-7.9c-0.5-0.8-0.3-1.7,0.4-1.8c0.6-0.1,2,0.8,3.7-0.3c1.7-1.1,1.7-3.3,1-4.6c-0.7-1.3-2.6-2.5-4.4-1.6c-1.8,0.9-1.8,2.6-2.2,3  c-0.5,0.5-1.3,0.2-1.8-0.6L59.7,15z"/>
</svg>
