<svg xmlns="http://www.w3.org/2000/svg" viewBox="0 0 183.89 83.66" width="100%" height="100%" preserveAspectRatio="xMidYMid">
  <defs>
    <style>
      .cls-1{fill:#fff;}
    </style>
  </defs>
  <title>
    logo
  </title>
  <g id="Warstwa_2" data-name="Warstwa 2">
    <g id="Warstwa_1-2" data-name="Warstwa 1">
      <path class="cls-1" d="M3.36,45.12A8.72,8.72,0,0,1,0,42.23l3.76-2.82A4.69,4.69,0,0,0,5.54,41,5.25,5.25,0,0,0,8,41.61a4.16,4.16,0,0,0,3.31-1.36,5.55,5.55,0,0,0,1.18-3.79V11h4.72V36.53a11.58,11.58,0,0,1-1.09,5.21A7.49,7.49,0,0,1,13,45a10.54,10.54,0,0,1-5,1.12A10,10,0,0,1,3.36,45.12Z"/>
      <path class="cls-1" d="M30.89,11h4.16L45.48,45.79H40.41L33,17.94,25.53,45.79H20.46ZM26,33.74H40.29v4.45H26Z"/>
      <path class="cls-1" d="M48.23,28.66l15.53-6.94v4.67L48.23,33.33Zm3-17.65h4.71V45.79H51.23Zm2.44,30.31h16v4.47h-16Z"/>
      <path class="cls-1" d="M78.82,44.85A8.8,8.8,0,0,1,75.2,41.1a12.14,12.14,0,0,1-1.27-5.71v-14a12.17,12.17,0,0,1,1.27-5.73A8.8,8.8,0,0,1,78.82,12,12.45,12.45,0,0,1,89.9,12a8.89,8.89,0,0,1,3.63,3.73,12.29,12.29,0,0,1,1.26,5.73v14a12.26,12.26,0,0,1-1.26,5.71,8.88,8.88,0,0,1-3.63,3.75,12.45,12.45,0,0,1-11.08,0Zm8.54-4a4.86,4.86,0,0,0,2-2.09A7,7,0,0,0,90,35.53V21.27a7,7,0,0,0-.68-3.19,4.86,4.86,0,0,0-2-2.09,6.53,6.53,0,0,0-6,0,4.91,4.91,0,0,0-2,2.09,6.79,6.79,0,0,0-.7,3.19V35.53a6.79,6.79,0,0,0,.7,3.19,4.91,4.91,0,0,0,2,2.09,6.53,6.53,0,0,0,6,0ZM82,6l6.22-6,3.28,3.3L84.75,8.73Z"/>
      <path class="cls-1" d="M112.91,11h3.32L122,38.07,126.57,11h4.81l-6.66,34.78h-5l-5-23.95-5.33,24h-5L97.78,11h4.81l4.57,27.06Z"/>
      <path class="cls-1" d="M135.2,11h4.72V45.79H135.2Zm3.69,19.45L151.14,11h5.48L138.34,38.57Zm4.64-3.26L147,23.64l10.91,22.15h-5.58Z"/>
      <path class="cls-1" d="M169.3,11h4.16l10.43,34.78h-5.07l-7.44-27.85-7.44,27.85h-5.07Zm-4.91,22.73H178.7v4.45H164.39Z"/>
      <path class="cls-1" d="M4.25,78.71A3.82,3.82,0,0,1,2.64,77a5.53,5.53,0,0,1-.56-2.59V68.18a5.57,5.57,0,0,1,.56-2.6,3.85,3.85,0,0,1,1.61-1.66,5.23,5.23,0,0,1,2.51-.58,5.23,5.23,0,0,1,2.51.58,3.93,3.93,0,0,1,1.62,1.66,5.7,5.7,0,0,1,.55,2.6v6.27A5.65,5.65,0,0,1,10.89,77a3.9,3.9,0,0,1-1.62,1.67,5.23,5.23,0,0,1-2.51.58A5.23,5.23,0,0,1,4.25,78.71Zm4-1.55a2.38,2.38,0,0,0,1-1,3.58,3.58,0,0,0,.34-1.61V68.11a3.61,3.61,0,0,0-.34-1.61,2.38,2.38,0,0,0-1-1,3.16,3.16,0,0,0-1.52-.35,3.16,3.16,0,0,0-1.52.35,2.38,2.38,0,0,0-1,1,3.48,3.48,0,0,0-.35,1.61v6.41a3.45,3.45,0,0,0,.35,1.61,2.38,2.38,0,0,0,1,1,3,3,0,0,0,1.52.35A3,3,0,0,0,8.28,77.16Z"/>
      <path class="cls-1" d="M15.46,78.85a2.87,2.87,0,0,1-1.11-1.35A5.36,5.36,0,0,1,14,75.38V71.8a5.68,5.68,0,0,1,.37-2.18,3,3,0,0,1,1.1-1.36,3.28,3.28,0,0,1,3.45,0,3.36,3.36,0,0,1,1.24,1.47l-.22,1.89a2.67,2.67,0,0,0-.24-1.16,1.74,1.74,0,0,0-.7-.79,2,2,0,0,0-1.09-.29,1.91,1.91,0,0,0-1.53.64,2.67,2.67,0,0,0-.54,1.78v3.53a2.48,2.48,0,0,0,.54,1.7,2,2,0,0,0,1.53.6A2,2,0,0,0,19,77.39a1.79,1.79,0,0,0,.7-.79,2.67,2.67,0,0,0,.24-1.16l.15,1.93A2.91,2.91,0,0,1,19,78.8a3,3,0,0,1-1.78.51A3.28,3.28,0,0,1,15.46,78.85Zm4.45-15.34h1.84V79.13H19.91Z"/>
      <path class="cls-1" d="M24.59,68h1.84V83.66H24.59Zm2.73,10.82a2.62,2.62,0,0,1-1-1.42l.15-2a2.89,2.89,0,0,0,.24,1.22,1.74,1.74,0,0,0,.69.8,2,2,0,0,0,1.1.28A1.92,1.92,0,0,0,30,77a2.73,2.73,0,0,0,.54-1.81V71.87a2.72,2.72,0,0,0-.54-1.8,1.93,1.93,0,0,0-1.55-.65,2.11,2.11,0,0,0-1.1.28,1.74,1.74,0,0,0-.69.8,2.72,2.72,0,0,0-.24,1.17l-.23-1.84a3.46,3.46,0,0,1,1.22-1.52,3.23,3.23,0,0,1,1.78-.52,3,3,0,0,1,1.71.47A3,3,0,0,1,32,69.65a5.79,5.79,0,0,1,.37,2.2v3.38A5.57,5.57,0,0,1,32,77.42a3,3,0,0,1-1.12,1.39,3.44,3.44,0,0,1-3.54,0Z"/>
      <path class="cls-1" d="M36.53,78.81a3.06,3.06,0,0,1-1.33-1.38,4.71,4.71,0,0,1-.47-2.18V71.79a4.67,4.67,0,0,1,.47-2.17,3.12,3.12,0,0,1,1.33-1.36,4.4,4.4,0,0,1,2.1-.47,4.47,4.47,0,0,1,2.11.47,3.14,3.14,0,0,1,1.34,1.36,4.8,4.8,0,0,1,.45,2.17v3.49a4.73,4.73,0,0,1-.45,2.16,3.11,3.11,0,0,1-1.34,1.37,4.36,4.36,0,0,1-2.11.48A4.29,4.29,0,0,1,36.53,78.81ZM40.15,77a2.48,2.48,0,0,0,.55-1.7V71.81a2.43,2.43,0,0,0-.55-1.68,2,2,0,0,0-1.53-.6,1.93,1.93,0,0,0-1.52.6,2.47,2.47,0,0,0-.53,1.68v3.45a2.48,2.48,0,0,0,.54,1.7,1.92,1.92,0,0,0,1.51.6A2,2,0,0,0,40.15,77Z"/>
      <path class="cls-1" d="M47.69,79.29l-.92-.48a3.14,3.14,0,0,1-1.4-1.39,4.73,4.73,0,0,1-.47-2.22V71.93a4.81,4.81,0,0,1,.47-2.24,3.26,3.26,0,0,1,1.4-1.4A4.61,4.61,0,0,1,49,67.8a4.88,4.88,0,0,1,1.84.32,2.91,2.91,0,0,1,1.25,1,3.55,3.55,0,0,1,.63,1.55L51,71.17a2.19,2.19,0,0,0-.69-1.23A1.92,1.92,0,0,0,49,69.52a2.27,2.27,0,0,0-1.7.62,2.47,2.47,0,0,0-.6,1.79V75.2A2.44,2.44,0,0,0,47.31,77a2.32,2.32,0,0,0,1.71.61,2.12,2.12,0,0,0,1.32-.4A2.09,2.09,0,0,0,51,76l1.69.56a3.62,3.62,0,0,1-.65,1.52,2.81,2.81,0,0,1-1.24.92,5.15,5.15,0,0,1-1.85.31Z"/>
      <path class="cls-1" d="M61.46,69.5l-4.82,7.92h5.11v1.71H54.47V77.56l5-7.88h-4.8V68h6.84Z"/>
      <path class="cls-1" d="M64.11,68H66V79.13H64.11Zm6,3.87a2.43,2.43,0,0,0-.55-1.73,2,2,0,0,0-1.58-.6,2,2,0,0,0-1.55.58A2.36,2.36,0,0,0,66,71.75l-.23-1.87A3.45,3.45,0,0,1,67,68.31a3.19,3.19,0,0,1,1.82-.52,3,3,0,0,1,2.39,1A4.44,4.44,0,0,1,72,71.69v7.44H70.16Z"/>
      <path class="cls-1" d="M75,63.7h1.84v1.83H75ZM75,68h1.84V79.13H75Z"/>
      <path class="cls-1" d="M78.44,81.93h.91a.94.94,0,0,0,.73-.31,1.39,1.39,0,0,0,.25-.89V68h1.84V80.7a3.15,3.15,0,0,1-.69,2.18,2.44,2.44,0,0,1-1.93.78H78.44Zm1.89-18.38h1.85v2H80.33Z"/>
      <path class="cls-1" d="M88.52,68h1.84V79.13H88.52Zm6,3.87A2.48,2.48,0,0,0,94,70.11a2,2,0,0,0-1.58-.6,2,2,0,0,0-1.55.58,2.32,2.32,0,0,0-.53,1.66l-.23-1.87a3.32,3.32,0,0,1,1.24-1.57,3.15,3.15,0,0,1,1.81-.52,2.92,2.92,0,0,1,2.39,1,4.39,4.39,0,0,1,.83,2.89v7.44H94.57Z"/>
      <path class="cls-1" d="M99.77,78.45A3.23,3.23,0,0,1,98.9,76a3.54,3.54,0,0,1,.9-2.63,3.71,3.71,0,0,1,2.71-.89h2.56l.15,1.53h-2.7a1.85,1.85,0,0,0-1.41.5,2.07,2.07,0,0,0-.47,1.49,1.58,1.58,0,0,0,.52,1.3,2.34,2.34,0,0,0,1.54.44,3,3,0,0,0,1.7-.39A1.31,1.31,0,0,0,105,76.2l.22,1.25a2.36,2.36,0,0,1-.53,1,2.16,2.16,0,0,1-1,.62,4.26,4.26,0,0,1-1.35.2A3.63,3.63,0,0,1,99.77,78.45ZM105,71.51a2.11,2.11,0,0,0-.55-1.56,2,2,0,0,0-1.53-.56,2.37,2.37,0,0,0-1.26.34,2.15,2.15,0,0,0-.81.93l-1.55-.46a3.08,3.08,0,0,1,1.27-1.77,4,4,0,0,1,2.34-.64,4.59,4.59,0,0,1,2.08.44,3,3,0,0,1,1.32,1.25,4.09,4.09,0,0,1,.45,2v7.66H105Z"/>
      <path class="cls-1" d="M113.14,63.51H115V79.13h-1.84Zm1.13,7.83h4.07a2.12,2.12,0,0,0,1.1-.29,1.89,1.89,0,0,0,.72-.81,2.86,2.86,0,0,0,.25-1.24V67.62a2.94,2.94,0,0,0-.25-1.27,1.87,1.87,0,0,0-.72-.82,2,2,0,0,0-1.1-.29h-4.07V63.51h4a4.35,4.35,0,0,1,2.13.49,3.34,3.34,0,0,1,1.39,1.42,4.6,4.6,0,0,1,.49,2.19V69a4.46,4.46,0,0,1-.49,2.15,3.37,3.37,0,0,1-1.39,1.41,4.35,4.35,0,0,1-2.13.5h-4Z"/>
      <path class="cls-1" d="M125.3,78.81A3.12,3.12,0,0,1,124,77.43a4.71,4.71,0,0,1-.46-2.18V71.79a4.67,4.67,0,0,1,.46-2.17,3.18,3.18,0,0,1,1.33-1.36,4.95,4.95,0,0,1,4.21,0,3.14,3.14,0,0,1,1.34,1.36,4.8,4.8,0,0,1,.46,2.17v3.49a4.72,4.72,0,0,1-.46,2.16,3.11,3.11,0,0,1-1.34,1.37,4.86,4.86,0,0,1-4.21,0ZM128.93,77a2.48,2.48,0,0,0,.54-1.7V71.81a2.42,2.42,0,0,0-.54-1.68,2,2,0,0,0-1.53-.6,1.92,1.92,0,0,0-1.52.6,2.42,2.42,0,0,0-.54,1.68v3.45a2.48,2.48,0,0,0,.54,1.7,1.93,1.93,0,0,0,1.52.6A2,2,0,0,0,128.93,77Z"/>
      <path class="cls-1" d="M135.16,78.85a2.87,2.87,0,0,1-1.11-1.35,5.36,5.36,0,0,1-.38-2.12V71.8a5.68,5.68,0,0,1,.37-2.18,3,3,0,0,1,1.1-1.36,3.28,3.28,0,0,1,3.45,0,3.36,3.36,0,0,1,1.24,1.47l-.22,1.89a2.67,2.67,0,0,0-.24-1.16,1.74,1.74,0,0,0-.7-.79,2,2,0,0,0-1.09-.29,1.91,1.91,0,0,0-1.53.64,2.67,2.67,0,0,0-.54,1.78v3.53a2.48,2.48,0,0,0,.54,1.7,2,2,0,0,0,1.53.6,2,2,0,0,0,1.09-.28,1.79,1.79,0,0,0,.7-.79,2.67,2.67,0,0,0,.24-1.16l.15,1.93a2.91,2.91,0,0,1-1.07,1.43,3,3,0,0,1-1.78.51A3.28,3.28,0,0,1,135.16,78.85Zm4.45-15.34h1.84V79.13h-1.84Z"/>
      <path class="cls-1" d="M146.13,76.19a1.46,1.46,0,0,0,.26.92.92.92,0,0,0,.74.32H148v1.7H146.9a2.4,2.4,0,0,1-1.92-.78,3.15,3.15,0,0,1-.69-2.18V63.51h1.84Z"/>
      <path class="cls-1" d="M150.43,78.45a3.23,3.23,0,0,1-.87-2.45,3.54,3.54,0,0,1,.9-2.63,3.71,3.71,0,0,1,2.71-.89h2.56l.15,1.53h-2.7a1.85,1.85,0,0,0-1.41.5A2.07,2.07,0,0,0,151.3,76a1.58,1.58,0,0,0,.52,1.3,2.36,2.36,0,0,0,1.54.44,3,3,0,0,0,1.7-.39,1.29,1.29,0,0,0,.58-1.15l.22,1.25a2.36,2.36,0,0,1-.53,1,2.16,2.16,0,0,1-1,.62,4.26,4.26,0,0,1-1.35.2A3.63,3.63,0,0,1,150.43,78.45Zm5.21-6.94a2.11,2.11,0,0,0-.55-1.56,2,2,0,0,0-1.53-.56,2.37,2.37,0,0,0-1.26.34,2.15,2.15,0,0,0-.81.93l-1.55-.46a3.08,3.08,0,0,1,1.27-1.77,4,4,0,0,1,2.34-.64,4.59,4.59,0,0,1,2.08.44A3,3,0,0,1,157,69.48a4.09,4.09,0,0,1,.45,2v7.66h-1.76Z"/>
      <path class="cls-1" d="M162.38,79.29l-.82-.28a3.26,3.26,0,0,1-1.36-.87,3.74,3.74,0,0,1-.8-1.44L161,76a3,3,0,0,0,1,1.26,2.59,2.59,0,0,0,1.47.43,2.87,2.87,0,0,0,1.73-.46,1.56,1.56,0,0,0,.6-1.32,1.21,1.21,0,0,0-.31-.88,1.78,1.78,0,0,0-.78-.45,9.62,9.62,0,0,0-1.3-.28l-.12,0-.16,0H163a8.79,8.79,0,0,1-1.65-.45,2.51,2.51,0,0,1-1.12-.91,2.83,2.83,0,0,1-.46-1.72,3.58,3.58,0,0,1,.44-1.84,2.86,2.86,0,0,1,1.28-1.12,4.9,4.9,0,0,1,2.07-.39,5.48,5.48,0,0,1,1.7.25,3.14,3.14,0,0,1,1.24.77,3.59,3.59,0,0,1,.78,1.29l-1.6.7a2.48,2.48,0,0,0-.87-1,2.22,2.22,0,0,0-1.26-.36,2.39,2.39,0,0,0-1.52.43,1.6,1.6,0,0,0-.52,1.28,1.11,1.11,0,0,0,.31.85,1.82,1.82,0,0,0,.79.43,12.13,12.13,0,0,0,1.33.27h0s0,0,0,0h.11a10.32,10.32,0,0,1,1.75.44,2.44,2.44,0,0,1,1.19.93,3.16,3.16,0,0,1,.48,1.86,3.4,3.4,0,0,1-.48,1.85,2.93,2.93,0,0,1-1.37,1.14,5.65,5.65,0,0,1-2.22.39Z"/>
      <path class="cls-1" d="M170.05,63.7h1.84v1.83h-1.84Zm0,4.27h1.84V79.13h-1.84Z"/>
      <path class="cls-1" d="M176.69,75.44a2.18,2.18,0,0,0,.53,1.56,2,2,0,0,0,1.53.56,2.07,2.07,0,0,0,1.52-.52,2,2,0,0,0,.52-1.49l.16,1.87a3.12,3.12,0,0,1-1.07,1.37,3.06,3.06,0,0,1-1.78.5,3,3,0,0,1-2.4-1,4.25,4.25,0,0,1-.83-2.83V68h1.82Zm4.1-7.47h1.82V79.13h-1.82Z"/>
    </g>
  </g>
</svg>
