<svg xmlns="http://www.w3.org/2000/svg" viewBox="0 0 1176.36 118.71" width="100%" height="100%" preserveAspectRatio="xMidYMid">
  <defs>
    <style>
      .cls-1,.cls-2{fill:#bdc7d9;}.cls-2{fill-rule:evenodd;}
    </style>
  </defs>
  <title>
    ornament
  </title>
  <g id="Warstwa_2" data-name="Warstwa 2">
    <g id="Слой_1" data-name="Слой 1">
      <path class="cls-1" d="M590.06,0a15.68,15.68,0,0,0-11.5,4.79,16,16,0,0,0-4.8,11.51,15.42,15.42,0,0,0,4.8,11.08,16.15,16.15,0,0,0,23,0,15.2,15.2,0,0,0,4.59-11.08,15.82,15.82,0,0,0-4.59-11.51A15.68,15.68,0,0,0,590.06,0ZM602.6,38.25c-1,.83-2.92,1.46-5.43,2.29a16.17,16.17,0,0,1-6.9.42A84.32,84.32,0,0,1,598,72.31c.42,10.66-1.67,19.44-6.06,26.12A87.74,87.74,0,0,0,594.45,83,81.64,81.64,0,0,0,594,66.88a72.16,72.16,0,0,0-4-15,39.82,39.82,0,0,0-7.94-12.75,41.81,41.81,0,0,1-1.88,16.51,25,25,0,0,1-7.32,11.71,21,21,0,0,1-11.7,5.43c-4.81.63-9.83-.42-15.68-2.93a14.51,14.51,0,0,0,4,11.08A19.1,19.1,0,0,0,560,86.11a22.55,22.55,0,0,0,12.54-1.88A26.71,26.71,0,0,0,584,74a9.4,9.4,0,0,1,.42,6.28,43.35,43.35,0,0,1-2.09,6.06l-3.14,6.27a15.91,15.91,0,0,0-1.88,6.06,18.19,18.19,0,0,0,2.3,11.49,22.48,22.48,0,0,0,7.31,8.57,12.28,12.28,0,0,0,8.16-6.68q2.82-5.34,5-10.66a20.65,20.65,0,0,0,1.47-7.31c.2-2.72.2-5.45.2-7.74a52.63,52.63,0,0,1,.21-6.06c.21-1.89.84-2.92,1.89-3.14a2.5,2.5,0,0,1,2.71.83,17.7,17.7,0,0,1,2.3,2.93c.84,1.47,1.67,2.72,2.51,4A9,9,0,0,0,615.14,88c3.76,2.09,7.53,2.51,11.08,1,3.76-1.25,6.9-4.18,9.2-8.35A50.07,50.07,0,0,1,620,71.89a53.07,53.07,0,0,1-10-10.86,39.65,39.65,0,0,1-5.44-11.7,38.58,38.58,0,0,1-1.88-11.08ZM696.66.62a72.23,72.23,0,0,1-6.48,9.2,40.37,40.37,0,0,1-8.78,7.73,48.48,48.48,0,0,1-13.58,5.65,94.76,94.76,0,0,1-20.7,2.51c-6.69.2-12.54-.64-17.14-2.93s-9.61-5-14.84-8.15a10.29,10.29,0,0,1,.42,3.76,16.33,16.33,0,0,1-.84,4,78,78,0,0,0,16.52,9.41,52.65,52.65,0,0,0,20.9,4.17A84.24,84.24,0,0,0,677,32.8c8.15-2.29,14.42-5.42,19-9.18-1.46,3.76-5.22,7.1-11.08,10a59.64,59.64,0,0,1-21.11,5.86,101.68,101.68,0,0,1-26.33-.42,83.06,83.06,0,0,1-27-8.57c5.65,5.22,11.5,9,18,11.08A66.77,66.77,0,0,0,649,44.93a130.32,130.32,0,0,0,22-1.47c7.32-1.25,14.63-2.7,21.95-4.17,7.31-1.67,14.42-3.14,21.53-4.4A108.81,108.81,0,0,1,733.66,33c1.25-2.92,1-6.28-.84-10.24a24.16,24.16,0,0,0-7.31-9.62,8.38,8.38,0,0,0-6.07-1.88,31.84,31.84,0,0,0-6.27,1.05c-2.3.41-4.39,1.05-6.48,1.46a9.94,9.94,0,0,1-6.06-.63,8.91,8.91,0,0,0,2.09-7.73C702.3,2.71,700.21,1,696.66.62Zm27.17,8a32.66,32.66,0,0,1,9.41,9.19,16.88,16.88,0,0,1,3.55,10.87,15.48,15.48,0,0,1-1.88,7.52c-1.46,2.1-2.93,4.39-4.39,6.48s-2.72,4.19-4,6.06a12.2,12.2,0,0,0-1.46,6.7,8.31,8.31,0,0,0,3.34,5,16.25,16.25,0,0,0,6.48,2.51,21.9,21.9,0,0,0,8.15-.21A20.2,20.2,0,0,0,750.59,60a23.37,23.37,0,0,0,9.2-10.87c2.08-4.6,1.46-9.19-1.68-14.22a27.18,27.18,0,0,1-3.55,9.41A27.75,27.75,0,0,1,748.71,52a23.52,23.52,0,0,1-7.32,4.61,9.28,9.28,0,0,1-7.73-1c5.43-.42,10-2.93,14-7.32s5.85-9.82,5.64-16.5a19.83,19.83,0,0,0-2.5-9.41,29.68,29.68,0,0,0-6.48-7.95,24.45,24.45,0,0,0-9.41-5.22,19.86,19.86,0,0,0-11.08-.62ZM589,7.1c1.67,0,2.5.63,2.5,2.09,0,1.88-.83,2.72-2.5,2.72-1.47,0-2.1-.84-2.1-2.72,0-1.46.63-2.09,2.1-2.09Z"/>
      <path class="cls-1" d="M16.3,4.79A15.65,15.65,0,0,0,4.81,9.6,16,16,0,0,0,0,21.09a15.39,15.39,0,0,0,4.81,11.1A15.65,15.65,0,0,0,16.3,37a15.68,15.68,0,0,0,11.5-4.8,15.21,15.21,0,0,0,4.6-11.1A15.81,15.81,0,0,0,27.8,9.6,15.69,15.69,0,0,0,16.3,4.79Zm-1,7.12c1.67,0,2.5.62,2.5,2.09,0,1.88-.83,2.72-2.5,2.72-1.47,0-2.09-.84-2.09-2.72,0-1.47.62-2.09,2.09-2.09Z"/>
      <path class="cls-1" d="M1160.26,8.35a14.74,14.74,0,0,1,11.29,4.81,14.72,14.72,0,0,1,4.81,11.29,14.59,14.59,0,0,1-4.81,11.08,14.74,14.74,0,0,1-11.29,4.81,15.33,15.33,0,0,1-11.7-4.81,15.9,15.9,0,0,1,0-22.37,15.33,15.33,0,0,1,11.7-4.81Zm.84,6.9c-1.67,0-2.51.83-2.51,2.3a2.22,2.22,0,0,0,2.51,2.51c1.47,0,2.3-.84,2.3-2.51a2.09,2.09,0,0,0-2.3-2.3Z"/>
      <path class="cls-1" d="M484.09.62a85.1,85.1,0,0,0,6.27,9,35,35,0,0,0,8.78,7.74,56.84,56.84,0,0,0,13.79,5.86,91.06,91.06,0,0,0,20.49,2.51c6.89.2,12.54-.84,17.14-3.14a155.15,155.15,0,0,0,15.05-7.94,10,10,0,0,0-.63,3.76,16.91,16.91,0,0,0,.84,3.76,82.27,82.27,0,0,1-16.52,9.62,52.6,52.6,0,0,1-20.9,4,83.51,83.51,0,0,1-24.66-3.13c-8.36-2.3-14.64-5.44-19-9.2,1.47,3.76,5,7.11,10.87,10.24,5.85,2.93,12.75,4.81,21.11,5.86a114.37,114.37,0,0,0,26.55-.63A77.28,77.28,0,0,0,570,30.3a47.46,47.46,0,0,1-18,11.29,65.7,65.7,0,0,1-20.49,3.14,133.48,133.48,0,0,1-21.94-1.47c-7.32-1.25-14.63-2.5-21.95-4.18-7.32-1.46-14.42-2.93-21.32-4.19A113,113,0,0,0,446.88,33c-1.25-3.14-1-6.48.84-10.45A25.91,25.91,0,0,1,455,12.94a8.73,8.73,0,0,1,6.07-1.87c2.09.21,4.18.62,6.47,1,2.1.63,4.19,1.05,6.28,1.47a9.89,9.89,0,0,0,6.06-.64,8.44,8.44,0,0,1-2.09-7.51c.41-2.93,2.5-4.39,6.27-4.81Zm-27.38,8a29.28,29.28,0,0,0-9.41,9c-2.51,4-3.76,7.52-3.55,10.86a13.68,13.68,0,0,0,2.09,7.53A65.38,65.38,0,0,0,450,42.43a52.14,52.14,0,0,1,4,6.26,10,10,0,0,1,1.46,6.48,7.59,7.59,0,0,1-3.34,5,16.29,16.29,0,0,1-6.48,2.5,21.48,21.48,0,0,1-8.15-.21A20.34,20.34,0,0,1,430.16,60a24.11,24.11,0,0,1-9.41-11.07c-2.09-4.61-1.46-9.2,1.68-14A31,31,0,0,0,426,44.1,25.67,25.67,0,0,0,432,52a19,19,0,0,0,7.32,4.4,8.92,8.92,0,0,0,7.52-1,20.24,20.24,0,0,1-14-7.32q-6-6.59-5.65-16.3a18.66,18.66,0,0,1,2.51-9.41,27,27,0,0,1,6.48-8.15A29.36,29.36,0,0,1,445.63,9a19.84,19.84,0,0,1,11.08-.42Z"/>
      <path class="cls-2" d="M755.81,15.05l404.45,5.85v3.33L760.41,30.72c2.3-4.4-.84-10.46-4.6-15.67Z"/>
      <path class="cls-2" d="M420.55,15.05,16.3,20.9v3.33L416,30.72c-2.3-4.4.83-10.46,4.6-15.67Z"/>
    </g>
  </g>
</svg>
