<svg xmlns="http://www.w3.org/2000/svg" viewBox="0 0 378.45 71.03" width="100%" height="100%" preserveAspectRatio="xMidYMid">
  <defs>
    <style>
      .cls-1{fill:#fff;}
    </style>
  </defs>
  <title>
    Zasób 4
  </title>
  <g id="Warstwa_2" data-name="Warstwa 2">
    <g id="Warstwa_1-2" data-name="Warstwa 1">
      <path class="cls-1" d="M190.16,70.66l2.06.11c5.62.26,10.49.85,14.3-5.79,4.55-7.92,13.28-10.4,22.35-10.59,1,0,2.44.56,3-.79.64-1.58-.93-2.16-1.82-2.86a23.55,23.55,0,0,0-9.53-5c-.79-.17-2,0-2.25-.89-.28-1.06.78-1.7,1.51-2.39,9-8.41,19.88-10.34,31.66-8.83a36.67,36.67,0,0,1,15.52,6c8.27,5.39,15.9,11.63,23.76,17.56A62.3,62.3,0,0,0,320,69.58,48.76,48.76,0,0,0,345.6,66c7.2-3,13.85-3.64,20.48,1.21a14.58,14.58,0,0,0,5.16,2c4.92,1.2,8.29-2.28,6.9-7.21-1.25-4.42-3.5-8.34-7.68-10.63-2.14-1.18-2.5-2-.53-3.68a29.57,29.57,0,0,0,5.53-7,12,12,0,0,0,1.69-4.09c.68-3.46-1.57-8.13-4.55-9.07-3.82-1.19-5.51,2-6.82,4.46-5.41,10.25-14.31,15.38-25.2,17.42-14,2.62-26.7-.74-38.2-9-1.31-.93-1.54-1.86.3-2.57,4.54-1.75,6.63-5.91,9-9.64,1.66-2.59-.32-5.34-3.71-5.53-2.7-.15-5.17.95-7.57,1.9a15.28,15.28,0,0,1-14-1.24c-1.08-.62-2.17-1.23-3.2-1.93-21.18-14.55-43.88-14.13-67.17-6.6-3.51,1.13-5.22,1.32-7.27-2.43C203.34,2.36,195.3-1.4,184.18.46,176.9,1.68,172.64,7.19,169.24,13c-1.67,2.88-3.06,3.31-5.82,2.16C146.59,8.25,129.36,8.91,112,12.71a35.39,35.39,0,0,0-11.79,5.49c-2.5,1.64-5.06,3.18-7.59,4.77-4.74,3-9.64,3.68-15,1.5a18.88,18.88,0,0,0-6.84-1.79,4.56,4.56,0,0,0-4.15,2.07c-1,1.62-.43,3.09.61,4.47,2.52,3.35,4.44,7.3,8.83,8.81,1.4.48,1.18,1.44.23,2.18-17,13.25-42.7,13.45-57.44.13C16.27,38,14.69,34.83,12.7,32c-1.63-2.34-3-5.68-6.85-4.44C2.38,28.66.4,33.73,1.59,37.67,2.66,41.23,5,44.08,7.51,46.62c2.26,2.3,3.12,3.5-.44,5.44C3.32,54.11,1.43,58,.31,62c-1.37,4.94,2,8.33,6.91,7.26a19.34,19.34,0,0,0,6.81-3c4.71-3.24,9.66-3.59,14.94-1.67,5,1.82,10,3.77,15.34,4.64C58.73,71.62,71.74,67.8,83.73,60c9.1-5.91,17.24-13.15,26.18-19.32,10.1-7,21-8.7,32.75-6.59,6.49,1.16,11.77,4.62,16.58,8.92,1.76,1.57,1.17,2.35-.93,2.71-3.8.66-6.95,2.69-9.9,5-.89.7-2.46,1.29-1.82,2.86.55,1.35,2,.76,3,.79,8.76.21,17.28,2.44,21.88,10,4.2,6.94,9.44,7.11,15.88,6.26C188,70.59,188.6,70.66,190.16,70.66Zm-.86-48.59c-3.35,0-6.12-2.33-6.05-5.16s2.24-4.7,5.9-4.72c3.81,0,6.15,1.88,6.07,4.94C195.14,19.78,192.44,22,189.3,22.07Z"/>
    </g>
  </g>
</svg>
